<svg xmlns="http://www.w3.org/2000/svg" width="400" height="400" viewBox="0 0 400 400">
  <rect width="400" height="400" fill="#f3f4f6"/>
  <g transform="translate(100,100)">
    <path d="M100 0C44.8 0 0 44.8 0 100s44.8 100 100 100 100-44.8 100-100S155.2 0 100 0zm40 140H80c-4.4 0-8-3.6-8-8V68c0-4.4 3.6-8 8-8h60c4.4 0 8 3.6 8 8v64c0 4.4-3.6 8-8 8z" fill="#d1d5db"/>
    <circle cx="100" cy="80" r="15" fill="#9ca3af"/>
  </g>
  <text x="200" y="340" text-anchor="middle" font-family="Arial, sans-serif" font-size="16" fill="#9ca3af">Imagem do Produto</text>
</svg>
